<?xml version="1.0" encoding="UTF-8" ?>
<!DOCTYPE svg PUBLIC "-//W3C//DTD SVG 1.1//EN" "http://www.w3.org/Graphics/SVG/1.1/DTD/svg11.dtd">
<svg width="286pt" height="217pt" viewBox="0 0 286 217" version="1.1" xmlns="http://www.w3.org/2000/svg">
<path fill="#ffffff" d=" M 0.00 0.00 L 286.00 0.00 L 286.00 217.00 L 0.00 217.00 L 0.00 0.00 Z" />
<path fill="#1f69b3" d=" M 2.00 3.00 C 48.67 3.00 95.33 3.00 142.00 3.00 C 142.00 49.67 142.00 96.33 142.00 143.00 C 95.33 143.00 48.67 143.00 2.00 143.00 C 2.00 96.33 2.00 49.67 2.00 3.00 Z" />
<path fill="#e0453b" d=" M 144.00 3.00 C 167.00 3.00 190.00 3.00 213.00 3.00 C 213.00 26.00 213.00 49.00 213.00 72.00 C 190.00 72.00 167.00 72.00 144.00 72.00 C 144.00 49.00 144.00 26.00 144.00 3.00 Z" />
<path fill="#43b3e5" d=" M 215.00 3.00 C 238.00 3.00 261.00 3.00 284.00 3.00 C 284.00 26.00 284.00 49.00 284.00 72.00 C 261.00 72.00 238.00 72.00 215.00 72.00 C 215.00 49.00 215.00 26.00 215.00 3.00 Z" />
<path fill="#ffffff" d=" M 157.23 30.91 C 154.80 25.89 159.07 19.91 164.09 18.75 C 169.17 17.87 174.36 18.21 179.49 18.33 C 177.76 19.56 175.80 20.53 173.61 20.31 C 175.74 22.34 177.34 25.03 176.70 28.09 C 176.91 32.07 171.54 33.26 171.30 36.90 C 173.03 40.31 178.04 41.75 178.44 46.03 C 179.31 51.55 174.09 55.74 169.11 56.44 C 164.87 56.98 160.04 57.10 156.47 54.39 C 153.32 52.02 153.52 46.90 156.44 44.43 C 159.45 41.93 163.51 41.18 167.33 41.03 C 166.48 39.42 166.25 37.62 166.20 35.82 C 162.47 36.18 158.77 34.43 157.23 30.91 Z" />
<path fill="#ffffff" d=" M 190.57 18.53 C 191.68 18.39 192.80 18.25 193.92 18.11 C 193.97 21.30 193.97 24.50 193.97 27.69 C 197.19 27.70 200.42 27.70 203.65 27.69 C 203.66 28.71 203.67 29.73 203.68 30.75 C 200.46 30.75 197.24 30.75 194.02 30.74 C 194.00 34.07 193.98 37.40 193.83 40.73 C 192.77 40.60 191.70 40.48 190.64 40.36 C 190.69 37.13 190.68 33.90 190.55 30.68 C 187.43 30.74 184.31 30.76 181.19 30.76 C 181.27 29.70 181.35 28.64 181.44 27.58 C 184.53 27.70 187.61 27.72 190.70 27.73 C 190.68 24.66 190.66 21.59 190.57 18.53 Z" />
<path fill="#e0453b" d=" M 161.73 22.58 C 162.89 19.89 165.97 20.24 168.37 20.36 C 171.47 23.72 173.19 28.56 171.33 32.96 C 169.49 33.67 167.36 35.08 165.44 33.75 C 161.80 31.54 160.74 26.49 161.73 22.58 Z" />
<path fill="#ffffff" d=" M 249.22 32.52 C 249.28 29.13 250.54 25.28 254.04 24.05 C 256.96 22.46 260.06 24.09 262.54 25.70 C 264.08 25.16 265.60 24.61 267.15 24.07 C 266.51 25.01 265.24 26.89 264.61 27.83 C 265.48 27.66 267.24 27.30 268.12 27.12 C 266.57 28.87 264.01 30.27 264.10 32.91 C 263.89 38.14 261.58 43.19 257.81 46.82 C 251.36 53.38 240.20 54.45 232.55 49.36 C 236.12 49.20 239.58 48.31 242.70 46.55 C 239.73 45.84 237.37 43.94 235.89 41.31 C 236.47 41.20 237.63 40.97 238.22 40.86 C 235.45 39.36 233.73 36.75 233.29 33.64 C 234.45 34.02 235.63 34.41 236.78 34.82 C 233.76 32.32 233.04 28.34 234.24 24.72 C 238.34 28.76 243.37 31.95 249.22 32.52 Z" />
<path fill="#ffffff" d=" M 71.03 38.16 C 77.60 35.46 84.94 36.32 91.88 36.27 C 92.06 40.56 91.99 44.85 91.98 49.14 C 89.14 49.27 86.21 48.93 83.46 49.70 C 79.91 51.44 79.99 55.83 79.75 59.20 C 83.82 59.22 87.89 59.22 91.96 59.19 C 91.95 63.58 91.96 67.97 91.94 72.36 C 87.93 72.38 83.93 72.38 79.93 72.32 C 79.79 85.20 79.91 98.08 79.87 110.96 C 74.10 110.95 68.33 110.98 62.56 110.93 C 62.60 98.07 62.54 85.20 62.60 72.34 C 59.14 72.38 55.68 72.38 52.22 72.34 C 52.24 67.96 52.24 63.58 52.21 59.20 C 55.64 59.20 59.07 59.20 62.50 59.25 C 61.88 51.52 63.56 42.15 71.03 38.16 Z" />
<path fill="#e0453b" d=" M 160.08 45.06 C 162.55 42.85 166.04 42.73 169.16 42.33 C 171.29 44.22 174.87 45.64 174.83 48.97 C 175.24 51.83 172.60 53.85 170.07 54.30 C 166.62 54.88 162.62 54.52 160.04 51.93 C 158.17 50.12 158.14 46.83 160.08 45.06 Z" />
<path fill="#0097bd" d=" M 144.00 74.00 C 167.00 74.00 190.00 74.00 213.00 74.00 C 213.00 97.00 213.00 120.00 213.00 143.00 C 190.00 143.00 167.00 143.00 144.00 143.00 C 144.00 120.00 144.00 97.00 144.00 74.00 Z" />
<path fill="#e0453b" d=" M 215.00 74.00 C 238.00 74.00 261.00 74.00 284.00 74.00 C 284.00 97.00 284.00 120.00 284.00 143.00 C 261.00 143.00 238.00 143.00 215.00 143.00 C 215.00 120.00 215.00 97.00 215.00 74.00 Z" />
<path fill="#ffffff" d=" M 161.38 90.28 C 164.51 87.85 169.39 91.13 168.67 94.91 C 168.22 98.30 163.78 100.21 161.10 97.98 C 158.52 96.15 158.69 91.92 161.38 90.28 Z" />
<path fill="#ffffff" d=" M 235.75 99.84 C 238.84 89.90 252.98 86.65 260.60 93.34 C 268.42 99.90 265.02 115.26 254.90 117.43 C 252.08 118.24 249.46 116.73 247.28 115.14 C 246.59 119.99 245.09 124.95 241.50 128.48 C 239.43 120.10 245.17 112.35 243.87 104.02 C 242.95 100.57 247.70 96.17 250.38 99.64 C 252.32 103.61 248.13 107.72 249.13 111.80 C 251.06 115.35 256.06 113.57 257.44 110.46 C 259.92 105.81 260.90 98.49 255.94 95.10 C 251.20 92.31 244.16 93.48 241.15 98.29 C 238.88 101.53 238.96 106.00 241.15 109.27 C 241.05 110.01 240.84 111.48 240.74 112.22 C 235.36 111.19 234.11 104.27 235.75 99.84 Z" />
<path fill="#ffffff" d=" M 159.97 102.31 C 162.61 102.33 165.25 102.33 167.90 102.31 C 167.99 110.99 167.89 119.67 167.95 128.35 C 165.26 128.35 162.56 128.35 159.87 128.34 C 159.92 119.67 159.75 110.99 159.97 102.31 Z" />
<path fill="#ffffff" d=" M 173.08 102.28 C 175.66 102.33 178.23 102.34 180.81 102.34 C 180.79 103.16 180.73 104.82 180.71 105.65 C 184.71 99.97 195.34 100.26 197.42 107.46 C 198.96 114.30 197.97 121.40 198.24 128.36 C 195.52 128.35 192.80 128.35 190.09 128.34 C 189.87 122.68 190.70 116.90 189.57 111.32 C 188.34 107.26 181.76 108.48 181.37 112.52 C 180.56 117.75 181.20 123.09 181.01 128.36 C 178.34 128.35 175.67 128.35 173.00 128.35 C 173.04 119.66 172.91 110.97 173.08 102.28 Z" />
<path fill="#e9a01c" d=" M 2.00 145.00 C 48.67 145.00 95.33 145.00 142.00 145.00 C 142.00 168.00 142.00 191.00 142.00 214.00 C 95.33 214.00 48.67 214.00 2.00 214.00 C 2.00 191.00 2.00 168.00 2.00 145.00 Z" />
<path fill="#e0453b" d=" M 144.02 145.02 C 190.68 145.04 237.33 145.03 283.98 145.02 C 283.96 168.01 283.96 190.99 283.98 213.98 C 237.32 213.96 190.67 213.97 144.01 213.97 C 144.05 190.99 144.03 168.00 144.02 145.02 Z" />
<path fill="#ffffff" d=" M 52.11 160.02 C 63.46 160.30 74.92 164.93 82.39 173.65 C 88.68 180.82 92.00 190.32 91.95 199.84 C 89.17 199.79 86.39 199.73 83.61 199.66 C 83.87 189.02 78.19 178.48 69.16 172.87 C 64.19 169.62 58.24 168.37 52.38 168.31 C 52.28 165.55 52.19 162.78 52.11 160.02 Z" />
<path fill="#ffffff" d=" M 203.30 160.54 C 206.86 160.02 206.56 164.14 207.46 166.39 C 208.55 164.12 208.45 160.08 211.94 160.67 C 209.86 165.66 208.10 170.88 208.78 176.38 C 207.09 176.52 206.08 175.82 206.45 174.02 C 206.89 169.26 204.69 164.95 203.30 160.54 Z" />
<path fill="#ffffff" d=" M 212.42 164.55 C 215.27 163.13 217.15 166.55 216.90 169.01 C 216.88 171.68 217.44 176.10 213.88 176.69 C 210.41 176.69 210.47 172.54 210.51 170.05 C 210.70 168.18 210.48 165.58 212.42 164.55 Z" />
<path fill="#ffffff" d=" M 218.11 164.90 C 218.58 164.78 219.51 164.53 219.98 164.41 C 220.02 167.79 219.94 171.17 220.05 174.55 C 220.43 174.27 221.20 173.72 221.59 173.44 C 222.01 170.45 221.72 167.41 221.79 164.40 C 222.29 164.53 223.31 164.79 223.81 164.93 C 224.03 168.65 223.82 172.38 223.91 176.10 C 222.07 176.01 219.89 177.12 218.28 175.84 C 217.80 172.22 217.99 168.54 218.11 164.90 Z" />
<path fill="#e0453b" d=" M 213.07 174.71 C 212.77 171.73 212.18 168.52 213.73 165.78 C 215.01 168.25 214.66 171.08 214.68 173.76 C 214.28 174.00 213.47 174.47 213.07 174.71 Z" />
<path fill="#ffffff" d=" M 52.22 173.11 C 60.79 173.53 69.47 177.42 74.21 184.81 C 77.30 189.20 78.46 194.54 78.79 199.82 C 76.06 199.84 73.33 199.83 70.60 199.81 C 70.36 195.45 69.46 190.87 66.44 187.54 C 63.01 183.37 57.59 181.62 52.37 181.31 C 52.29 178.58 52.24 175.84 52.22 173.11 Z" />
<path fill="#ffffff" d=" M 201.08 179.21 C 204.94 178.17 209.03 178.89 212.99 178.70 C 217.32 178.90 221.76 178.20 226.02 179.14 C 229.93 180.79 229.11 185.60 229.20 189.02 C 228.97 191.87 229.86 195.33 227.69 197.64 C 226.02 199.53 223.28 199.19 221.02 199.26 C 215.00 199.13 208.98 199.37 202.97 199.16 C 200.30 199.16 198.00 196.66 198.12 194.02 C 198.00 190.66 198.00 187.30 198.12 183.94 C 198.04 181.95 199.28 180.03 201.08 179.21 Z" />
<path fill="#e0453b" d=" M 201.88 182.14 C 204.01 182.17 206.13 182.19 208.26 182.23 C 208.25 183.77 207.31 184.47 205.82 184.54 C 205.79 188.06 205.80 191.58 205.85 195.10 C 205.39 195.11 204.46 195.12 203.99 195.13 C 203.99 191.51 203.99 187.90 204.00 184.29 C 203.46 184.27 202.38 184.24 201.84 184.23 C 201.85 183.70 201.87 182.66 201.88 182.14 Z" />
<path fill="#e0453b" d=" M 214.62 181.56 C 216.55 182.07 215.80 184.20 216.11 185.61 C 216.81 185.68 218.21 185.83 218.91 185.91 C 219.65 188.85 219.78 192.11 218.71 194.99 L 216.45 195.53 C 216.94 194.76 217.43 194.00 217.95 193.24 C 217.40 191.18 219.05 187.44 216.13 186.87 C 215.99 189.90 216.12 192.94 216.08 195.97 L 214.61 194.29 C 214.26 190.06 214.50 185.80 214.62 181.56 Z" />
<path fill="#e0453b" d=" M 220.84 193.01 C 220.86 190.38 219.58 185.88 223.08 185.08 C 225.97 185.20 225.64 188.54 226.00 190.57 C 225.01 190.58 223.03 190.60 222.04 190.61 C 222.28 191.98 222.76 193.24 223.48 194.41 C 223.64 193.79 223.94 192.55 224.09 191.93 C 224.58 191.97 225.55 192.06 226.03 192.11 C 225.69 193.16 225.36 194.22 225.02 195.27 C 223.33 195.50 220.70 195.41 220.84 193.01 Z" />
<path fill="#e0453b" d=" M 207.97 185.47 L 209.51 185.42 C 209.93 188.23 208.29 192.00 210.93 194.03 C 211.36 190.89 210.48 187.46 212.11 184.58 C 213.26 187.98 212.73 191.61 212.84 195.12 C 211.29 195.15 209.71 195.35 208.19 195.01 C 207.76 191.85 207.96 188.65 207.97 185.47 Z" />
<path fill="#ffffff" d=" M 222.40 187.18 C 223.99 186.71 224.48 187.31 223.89 188.97 C 222.29 189.43 221.79 188.83 222.40 187.18 Z" />
<path fill="#ffffff" d=" M 55.23 189.21 C 59.49 186.45 65.60 192.34 62.68 196.62 C 61.12 199.76 56.36 200.64 53.89 198.10 C 51.05 195.79 51.72 190.51 55.23 189.21 Z" />
</svg>
